<?xml version="1.0" encoding="UTF-8"?>
<svg xmlns="http://www.w3.org/2000/svg" id="Layer_1" data-name="Layer 1" viewBox="0 0 188.3 49.34">
  <defs>
    <style>
      .cls-1 {
        fill: none;
      }

      .cls-2 {
        fill: #fff;
      }

      .cls-3 {
        fill: #f16622;
      }

      .cls-4 {
        fill: gray;
      }
    </style>
  </defs>
  <polygon class="cls-3" points=".91 31.83 7.48 7.94 31 1.57 47.95 19.08 41.37 42.97 17.85 49.34 .91 31.83"></polygon>
  <path class="cls-2" d="M30.85,12.48s3.99,5.56,10.75,8c-5.87-3.6-7.65-10.95-10.46-13.52-1.14-.87-1.66-.33-1.66-.33h0s0,0,0,0h0s-10.55,.43-17.8,5.93c7.54-3.77,14.86-2.23,14.86-2.23,0,0,2.88,4.26-1.94,15.06,6.35-8.26,6.25-12.9,6.25-12.9"></path>
  <path class="cls-2" d="M10.24,26.1s2.75-6.37,1.49-13.58c-.17,7.02-5.52,12.35-6.32,16.15-.18,1.46,.53,1.63,.53,1.63h0s0,0,0,0h0s5.56,9.08,13.79,12.65c-6.91-4.72-9.21-11.96-9.21-11.96,0,0,2.52-4.35,14.06-5.63-10.14-1.36-14.35,.72-14.35,.72"></path>
  <path class="cls-2" d="M32.05,37.42s-6.76,.79-12.28,5.57c6.05-3.41,13.2-1.38,16.83-2.6,1.32-.58,1.13-1.3,1.13-1.3h0s0,0,0,0h0s5.02-9.52,4.05-18.62c-.65,8.5-5.68,14.21-5.68,14.21,0,0-4.78,.26-11.49-9.29,3.78,9.66,7.46,12.04,7.46,12.04"></path>
  <path class="cls-3" d="M36.75,43.59c-1.53-1.53-1.53-4.05-.01-5.63,1.52-1.58,4-1.61,5.53-.08,1.53,1.53,1.53,4.06,.01,5.63-1.52,1.58-4,1.61-5.52,.08"></path>
  <path class="cls-2" d="M37,41.35c-.32-1.41,.55-2.83,1.93-3.16,1.39-.34,2.76,.53,3.08,1.94,.32,1.41-.55,2.82-1.93,3.16-1.38,.34-2.77-.53-3.08-1.93"></path>
  <path class="cls-3" d="M28.09,6.83c-1.53-1.53-1.53-4.05-.01-5.63,1.52-1.57,4-1.61,5.52-.08,1.53,1.53,1.53,4.05,.01,5.63-1.52,1.58-4,1.61-5.53,.08"></path>
  <path class="cls-2" d="M28.33,4.6c-.32-1.41,.55-2.83,1.93-3.17,1.39-.34,2.76,.53,3.08,1.94,.32,1.41-.55,2.82-1.93,3.16-1.38,.34-2.77-.53-3.08-1.93"></path>
  <path class="cls-3" d="M2.93,27.31c2.09-.57,4.22,.68,4.76,2.8,.54,2.12-.72,4.31-2.8,4.88-2.09,.58-4.22-.68-4.76-2.8-.54-2.12,.71-4.31,2.8-4.89"></path>
  <path class="cls-2" d="M4.69,28.65c1.35,.42,2.1,1.89,1.67,3.28-.43,1.38-1.88,2.16-3.23,1.73-1.35-.42-2.1-1.89-1.66-3.27,.43-1.39,1.88-2.16,3.23-1.74"></path>
  <polygon class="cls-4" points="63.65 30.21 69.92 30.22 72.88 18.81 75.46 18.81 72.39 30.65 69.94 32.64 63.05 32.64 62.1 31.18 60.41 32.64 53.52 32.63 52.09 30.64 55.17 18.8 57.75 18.8 54.79 30.21 61.06 30.21 64.02 18.8 66.61 18.8 63.65 30.21"></polygon>
  <path class="cls-4" d="M77.66,20.8l2.45-1.99h8.45s1.42,2,1.42,2l-1.56,6.03h-9.75s-.88,3.39-.88,3.39h9.69s-3.05,2.43-3.05,2.43h-7.91s-1.42-2-1.42-2l2.56-9.85Zm1.65,3.61h7.16s.82-3.17,.82-3.17h-7.16s-.82,3.17-.82,3.17Z"></path>
  <path class="cls-4" d="M94.99,13.27l2.21,1.46-1.06,4.09h7.38s1.53,2,1.53,2l-2.55,9.85-2.4,1.99h-8.13s-1.48-2-1.48-2l4.51-17.39Zm-1.81,16.96h6.84s2.33-8.99,2.33-8.99h-6.84s-2.33,8.99-2.33,8.99Z"></path>
  <polygon class="cls-3" points="115.9 26.8 108.41 26.79 106.99 24.8 108.02 20.82 110.48 18.82 122.06 18.83 119 21.25 110.5 21.25 109.69 24.37 117.17 24.37 118.59 26.37 117.48 30.67 115.02 32.66 103.5 32.66 106.55 30.24 115 30.24 115.9 26.8"></polygon>
  <path class="cls-3" d="M122.8,20.82l2.46-1.99h8.45s1.42,2,1.42,2l-1.56,6.03h-9.74s-.88,3.39-.88,3.39h9.69s-3.05,2.43-3.05,2.43h-7.91s-1.42-2-1.42-2l2.55-9.85Zm1.65,3.61h7.16s.82-3.17,.82-3.17h-7.16s-.82,3.17-.82,3.17Z"></path>
  <polygon class="cls-3" points="138.01 20.83 140.47 18.84 146.68 18.84 143.71 21.27 140.48 21.26 137.52 32.68 134.94 32.67 138.01 20.83"></polygon>
  <polygon class="cls-3" points="145.17 18.84 147.76 18.84 148.91 30.1 148.96 30.1 155.94 18.85 158.53 18.85 149.66 32.68 146.7 32.68 145.17 18.84"></polygon>
  <path class="cls-3" d="M158.95,20.84l2.46-1.99h8.45s1.42,2,1.42,2l-1.56,6.03h-9.75s-.88,3.39-.88,3.39h9.69s-3.05,2.43-3.05,2.43h-7.91s-1.42-2-1.42-2l2.55-9.85Zm1.65,3.61h7.16s.82-3.17,.82-3.17h-7.16s-.82,3.17-.82,3.17Z"></path>
  <polygon class="cls-3" points="182.14 26.83 174.66 26.83 173.23 24.83 174.27 20.85 176.72 18.86 188.3 18.87 185.25 21.29 176.74 21.28 175.93 24.41 183.41 24.41 184.84 26.4 183.72 30.71 181.26 32.7 169.74 32.69 172.79 30.27 181.25 30.28 182.14 26.83"></polygon>
  <rect class="cls-1" width="47.95" height="49.34"></rect>
</svg>
